HIERARCHY
ROOT Hips
{
	OFFSET 0.000000 0.000000 0.000000
	CHANNELS 6 Xposition Yposition Zposition Zrotation Yrotation Xrotation 
	JOINT LHipJoint
	{
		OFFSET 0.000000 0.000000 0.000000
		CHANNELS 3 Zrotation Yrotation Xrotation
		JOINT LeftUpLeg
		{
			OFFSET 1.363060 -1.794630 0.839290
			CHANNELS 3 Zrotation Yrotation Xrotation
			JOINT LeftLeg
			{
				OFFSET 2.448110 -6.726130 0.000000
				CHANNELS 3 Zrotation Yrotation Xrotation
				JOINT LeftFoot
				{
					OFFSET 2.562200 -7.039590 0.000000
					CHANNELS 3 Zrotation Yrotation Xrotation
					JOINT LeftToeBase
					{
						OFFSET 0.157640 -0.433110 2.322550
						CHANNELS 3 Zrotation Yrotation Xrotation
						End Site
						{
							OFFSET 0.000000 0.000000 0.000000
						}
					}
				}
			}
		}
	}
	JOINT RHipJoint
	{
		OFFSET 0.000000 0.000000 0.000000
		CHANNELS 3 Zrotation Yrotation Xrotation
		JOINT RightUpLeg
		{
			OFFSET -1.305520 -1.794630 0.839290
			CHANNELS 3 Zrotation Yrotation Xrotation
			JOINT RightLeg
			{
				OFFSET -2.542530 -6.985550 0.000000
				CHANNELS 3 Zrotation Yrotation Xrotation
				JOINT RightFoot
				{
					OFFSET -2.568260 -7.056230 0.000000
					CHANNELS 3 Zrotation Yrotation Xrotation
					JOINT RightToeBase
					{
						OFFSET -0.164730 -0.452590 2.363150
						CHANNELS 3 Zrotation Yrotation Xrotation
						End Site
						{
							OFFSET 0.000000 0.000000 0.000000
						}
					}
				}
			}
		}
	}
}
MOTION
Frames: 33
Frame Time: 0.008333
-2.130893 16.943063 -2.217097 175.699172 85.425009 -176.079220 -11.261062 5.402452 0.380876 -9.202101 8.519104 0.322097 -1.375498 2.355539 30.489689 -0.037067 -7.110049 10.065749 -1.909700 -0.000000 -81.699200 9.220303 -0.239787 3.403985 5.763681 4.940622 -31.036384 2.265538 -0.700752 16.819596 0.806652 4.685863 6.564814 0.652400 -0.000000 -52.001001
-1.982382 16.921518 -2.237431 -179.923148 85.259455 -171.755377 -11.583757 5.486742 0.377365 -8.319058 9.149164 -0.979030 -1.184144 2.512544 33.069708 0.057633 -7.353071 11.355711 -2.184500 0.000000 -83.055801 9.079944 -0.275509 3.216082 6.590779 4.270446 -31.457026 2.266362 -0.828055 18.791637 0.790117 4.695511 5.643636 0.602600 0.000000 -51.767101
-1.840421 16.897048 -2.258038 -175.987134 85.019772 -167.894112 -11.911358 5.525829 0.333018 -7.436901 9.852218 -2.356534 -0.982387 2.663554 35.801839 0.169558 -7.483558 12.716737 -2.454001 0.000000 -83.421800 8.924633 -0.317322 3.020003 7.389468 3.627699 -31.899471 2.261766 -0.963981 20.889035 0.767509 4.731162 4.492353 0.549700 -0.000001 -51.398300
-1.705255 16.869351 -2.278688 -172.445331 84.707245 -164.453270 -12.234320 5.518347 0.244073 -6.551275 10.616663 -3.787415 -0.774928 2.810593 38.663683 0.298944 -7.426594 14.094318 -2.679900 -0.000000 -82.700900 8.761107 -0.363573 2.818207 8.159360 3.033746 -32.313386 2.253980 -1.102510 23.031633 0.737863 4.777368 3.176148 0.492300 -0.000000 -50.938600
-1.576867 16.838342 -2.299069 -169.309478 84.320222 -161.450833 -12.542241 5.464857 0.110106 -5.665792 11.419927 -5.243146 -0.567164 2.956930 41.626667 0.443816 -7.100417 15.406278 -2.809200 0.000000 -80.844200 8.597056 -0.412610 2.609876 8.899520 2.489636 -32.654790 2.244838 -1.238633 25.148594 0.700984 4.822990 1.758531 0.430900 0.000000 -50.424300
-1.455198 16.804026 -2.318359 -166.692853 83.856929 -159.010307 -12.818635 5.368544 -0.067244 -4.802751 12.229715 -6.684054 -0.363239 3.106418 44.652494 0.601376 -6.419903 16.564294 -2.781100 -0.000000 -77.910500 8.447213 -0.460522 2.389321 9.595344 1.969397 -32.891032 2.234140 -1.370010 27.192803 0.657887 4.868485 0.291614 0.368400 -0.000000 -49.875800
-1.339493 16.766690 -2.336794 -164.478009 83.319713 -157.007419 -13.069138 5.235299 -0.280188 -3.945676 13.032141 -8.118704 -0.165399 3.264553 47.727701 0.768824 -5.341227 17.466114 -2.550200 -0.000000 -73.900100 8.306106 -0.509175 2.161748 10.265763 1.482717 -33.005437 2.224002 -1.490929 29.104962 0.606270 4.876780 -1.165127 0.302100 0.000000 -49.307600
-1.229242 16.726773 -2.353654 -162.749009 82.708888 -155.528628 -13.283215 5.071601 -0.521093 -3.119255 13.793839 -9.524380 0.026340 3.434544 50.812888 0.944008 -3.833738 18.025431 -2.088500 0.000000 -69.053700 8.184512 -0.555451 1.923686 10.896264 1.001455 -32.993197 2.212500 -1.601092 30.867999 0.545982 4.839156 -2.578961 0.235301 -0.000000 -48.722000
-1.123513 16.684895 -2.368984 -161.441398 82.026456 -154.500296 -13.464339 4.884031 -0.778625 -2.325651 14.492351 -10.908492 0.213663 3.618785 53.881128 1.125578 -1.922251 18.166718 -1.408900 -0.000000 -63.551700 8.079787 -0.600272 1.679299 11.493212 0.525600 -32.862217 2.198982 -1.698829 32.463518 0.474447 4.724562 -3.919991 0.169601 0.000000 -48.123100
-1.021510 16.641846 -2.382628 -160.534028 81.275287 -153.892059 -13.612326 4.679131 -1.040952 -1.581047 15.100671 -12.273640 0.399014 3.816801 56.896851 1.312888 0.327751 17.847815 -0.563500 0.000000 -57.677999 7.993408 -0.642988 1.431327 12.051815 0.048833 -32.630300 2.181700 -1.784537 33.893313 0.389791 4.512958 -5.174577 0.108900 0.000000 -47.517900
-0.922352 16.598516 -2.395022 -159.924330 80.458295 -153.587294 -13.735194 4.461945 -1.295274 -0.885049 15.601027 -13.636930 0.584446 4.026797 59.831278 1.504453 2.802523 17.052466 0.358400 0.000000 -51.662800 7.918013 -0.686106 1.186832 12.584022 -0.415290 -32.318332 2.160167 -1.858008 35.157979 0.288905 4.176599 -6.333501 0.057500 -0.000000 -46.917900
-0.825309 16.555856 -2.406067 -159.608968 79.580982 -153.570796 -13.831225 4.238226 -1.530366 -0.264304 15.970357 -15.003847 0.771072 4.243311 62.647624 1.698548 5.375275 15.813131 1.256100 0.000000 -45.805900 7.857335 -0.727951 0.948627 13.077329 -0.872368 -31.956336 2.132787 -1.921548 36.281846 0.171390 3.715469 -7.405473 0.020400 -0.000001 -46.340900
-0.729694 16.514808 -2.416236 -159.515775 78.649397 -153.755298 -13.905779 4.012004 -1.735932 0.272685 16.198482 -16.391777 0.958449 4.460630 65.320119 1.891092 7.905208 14.182058 2.029900 -0.000000 -40.284300 7.807189 -0.769760 0.722638 13.536019 -1.312072 -31.571608 2.099879 -1.976308 37.281372 0.036493 3.128231 -8.399486 0.001600 -0.000000 -45.804800
-0.635047 16.476304 -2.425871 -159.608648 77.671905 -154.094865 -13.960409 3.787523 -1.903838 0.711014 16.280840 -17.811161 1.144577 4.671693 67.824199 2.076383 10.266587 12.234133 2.603600 0.000001 -35.209900 7.767783 -0.811662 0.513177 13.955826 -1.732917 -31.189277 2.061964 -2.024020 38.178961 -0.114495 2.431464 -9.330648 0.004000 -0.000000 -45.323700
-0.540928 16.441090 -2.435473 -159.840799 76.657752 -154.531444 -13.998140 3.567247 -2.029464 1.042831 16.223188 -19.273545 1.325882 4.870052 70.140394 2.247017 12.354327 10.051302 2.932500 0.000000 -30.619500 7.737186 -0.854061 0.323521 14.337150 -2.131605 -30.830911 2.020847 -2.065948 38.991967 -0.279235 1.649350 -10.214343 0.029400 0.000000 -44.906399
-0.447119 16.409854 -2.445484 -160.184350 75.618176 -155.031386 -14.019909 3.353315 -2.111211 1.260862 16.038062 -20.782381 1.497537 5.049746 72.250886 2.394981 14.092803 7.716417 3.006700 -0.000000 -26.500600 7.715561 -0.896928 0.154959 14.676816 -2.511340 -30.509679 1.978613 -2.103228 39.734512 -0.453750 0.815347 -11.064218 0.078000 -0.000001 -44.554300
-0.353587 16.383104 -2.456177 -160.624005 74.564516 -155.582119 -14.024828 3.148022 -2.149626 1.360374 15.743268 -22.329248 1.653873 5.205298 74.138018 2.512732 15.436179 5.308200 2.847800 -0.000000 -22.818900 7.705015 -0.940445 0.007410 14.967505 -2.882208 -30.226823 1.937597 -2.136652 40.414212 -0.632683 -0.031987 -11.890502 0.148400 0.000000 -44.262100
-0.260267 16.361171 -2.467834 -161.141374 73.508715 -156.167189 -14.012976 2.951696 -2.149887 1.343250 15.362604 -23.902103 1.788742 5.333559 75.786188 2.594088 16.364954 2.896945 2.500600 0.000000 -19.539100 7.705822 -0.984118 -0.122269 15.205557 -3.253038 -29.977024 1.900452 -2.166632 41.030648 -0.810464 -0.857609 -12.697831 0.238400 0.000000 -44.021100
-0.167331 16.344269 -2.480551 -161.724122 72.461241 -156.784576 -13.983570 2.764970 -2.118122 1.215899 14.921802 -25.479099 1.896370 5.432478 77.180481 2.635361 16.885598 0.544620 2.024501 -0.000000 -16.639100 7.718971 -1.027978 -0.237675 15.386460 -3.635054 -29.742656 1.869387 -2.193074 41.575445 -0.981646 -1.632332 -13.484147 0.343999 0.000000 -43.820900
-0.074921 16.332471 -2.494357 -162.358255 71.430316 -157.432771 -13.936409 2.587668 -2.062120 0.989765 14.447873 -27.034989 1.972018 5.501697 78.308623 2.636192 17.028845 -1.695384 1.483600 0.000000 -14.114500 7.744358 -1.072052 -0.343134 15.508320 -4.036338 -29.499571 1.846001 -2.215514 42.034762 -1.141913 -2.337664 -14.241363 0.460701 0.000000 -43.651100
0.016811 16.325728 -2.509030 -163.035863 70.422429 -158.117483 -13.871136 2.419273 -1.990902 0.676322 13.966876 -28.542824 2.012520 5.542158 79.161868 2.600179 16.849270 -3.779532 0.937100 0.000000 -11.966900 7.781882 -1.115697 -0.443753 15.569005 -4.463439 -29.221024 1.831011 -2.233234 42.391953 -1.288335 -2.965601 -14.957330 0.583300 0.000000 -43.501900
0.107778 16.323975 -2.524426 -163.746750 69.440856 -158.839873 -13.788179 2.258453 -1.913510 0.288332 13.502616 -29.979506 2.016683 5.555854 79.735742 2.534924 16.422018 -5.674871 0.431200 -0.000000 -10.199200 7.830245 -1.158166 -0.544128 15.569502 -4.917037 -28.880990 1.824157 -2.245306 42.630072 -1.419932 -3.520319 -15.616424 0.706600 0.000000 -43.365900
0.197919 16.327035 -2.540238 -164.483827 68.486124 -159.604350 -13.687987 2.104273 -1.837630 -0.162871 13.075456 -31.324607 1.985474 5.545127 80.031956 2.451543 15.838946 -7.362778 -0.005901 0.000000 -8.795600 7.888278 -1.198676 -0.647286 15.511343 -5.394828 -28.456785 1.824144 -2.250693 42.734876 -1.537385 -4.015102 -16.202402 0.826599 0.000000 -43.238800
0.287243 16.334710 -2.556194 -165.241148 67.555892 -160.414972 -13.571175 1.956235 -1.768796 -0.668669 12.701476 -32.563156 1.921621 5.512234 80.057894 2.363460 15.200967 -8.841191 -0.365400 0.000000 -7.708400 7.954805 -1.236779 -0.754023 15.396885 -5.890816 -27.930648 1.828753 -2.248391 42.697463 -1.642879 -4.470226 -16.700836 0.940100 0.000000 -43.119701
0.375965 16.346876 -2.572151 -166.014726 66.647293 -161.267050 -13.438774 1.812738 -1.713265 -1.224762 12.391503 -33.689229 1.828683 5.460120 79.824651 2.284730 14.607924 -10.124908 -0.655001 -0.000000 -6.855900 8.028016 -1.270803 -0.866220 15.229309 -6.395479 -27.296244 1.835553 -2.237785 42.513210 -1.739459 -4.908442 -17.099689 1.045200 -0.000000 -43.012901
0.464241 16.363333 -2.588023 -166.800043 65.755175 -162.157428 -13.291813 1.673660 -1.673512 -1.827930 12.151418 -34.699321 1.710847 5.390893 79.347436 2.228200 14.147843 -11.242842 -0.893500 0.000000 -6.133900 8.106662 -1.300353 -0.982671 15.012079 -6.899251 -26.551689 1.841879 -2.218508 42.184344 -1.830435 -5.351436 -17.392070 1.140900 0.000000 -42.925800
0.552371 16.383912 -2.603881 -167.593894 64.874882 -163.078923 -13.131431 1.539281 -1.650689 -2.477210 11.982754 -35.594930 1.571996 5.306560 78.642185 2.204081 13.887689 -12.231974 -1.104300 -0.000001 -5.437200 8.189517 -1.324978 -1.101867 14.749191 -7.392996 -25.702793 1.845420 -2.190546 41.717875 -1.918678 -5.815662 -17.575885 1.226800 0.000000 -42.868100
0.640630 16.408464 -2.619977 -168.391151 64.002231 -164.018993 -12.959113 1.409881 -1.644766 -3.171668 11.883230 -36.381519 1.415508 5.208933 77.723871 2.219017 13.867076 -13.129467 -1.310200 0.000000 -4.681200 8.275085 -1.344441 -1.222423 14.445795 -7.868776 -24.760957 1.844614 -2.154238 41.123856 -2.006290 -6.310651 -17.653707 1.301900 0.000000 -42.850600
0.729307 16.436828 -2.636672 -169.186358 63.134540 -164.964126 -12.776390 1.286601 -1.653993 -3.909389 11.849208 -37.065545 1.244146 5.099368 76.605205 2.275588 14.095496 -13.966105 -1.529499 -0.000001 -3.817200 8.362167 -1.359059 -1.342521 14.107206 -8.322547 -23.740541 1.838730 -2.110100 40.415117 -2.093994 -6.836333 -17.632605 1.364700 0.000000 -42.882700
0.818663 16.468803 -2.654514 -169.968320 62.270210 -165.894000 -12.585337 1.170551 -1.675321 -4.685580 11.876368 -37.657287 1.060238 4.979033 75.296579 2.372010 14.551636 -14.761201 -1.773400 0.000000 -2.837099 8.448836 -1.369835 -1.459994 13.742201 -8.751501 -22.658138 1.828127 -2.058584 39.603691 -2.181418 -7.384971 -17.522357 1.413500 -0.000000 -42.970299
0.908983 16.504161 -2.674045 -170.734829 61.409319 -166.795876 -12.386840 1.063179 -1.706846 -5.499375 11.959428 -38.164665 0.865394 4.848713 73.803650 2.502743 15.190584 -15.519987 -2.045000 0.000000 -1.774000 8.535169 -1.376835 -1.575664 13.352939 -9.163084 -21.531091 1.814153 -2.000571 38.702375 -2.265708 -7.935688 -17.334612 1.445499 0.000000 -43.117900
1.000407 16.542539 -2.695788 -171.475699 60.565792 -167.644816 -12.184373 0.968684 -1.749442 -6.342484 12.100363 -38.603030 0.660023 4.714081 72.131713 2.658155 15.944879 -16.235321 -2.338200 0.000000 -0.688600 8.617418 -1.375101 -1.693752 12.949127 -9.556949 -20.375263 1.797117 -1.934778 37.723339 -2.344101 -8.467105 -17.081450 1.458600 -0.000000 -43.324400
1.093113 16.583574 -2.720373 -172.178065 59.719907 -168.436357 -11.977232 0.885611 -1.790884 -7.208789 12.291823 -38.975405 0.447246 4.567403 70.285502 2.825990 16.735654 -16.889099 177.362000 -0.000000 -0.341501 8.698579 -1.377413 -1.802308 12.536195 -9.947958 -19.201335 1.781752 -1.863707 36.668856 -2.412102 -8.953186 -16.770703 1.450200 0.000000 -43.590400
